{"title":"CHVRCHES Hype Machine's Hype Hotel [Mar 2013] 720p 3.4Mbps","uid":10555514,"size":835352180,"categoryP":"video","categoryS":"music_videos","magnet":"?xt=urn:btih:7c302ef77b5e306666d9abaae2f16c5eece2483b&amp;dn=CHVRCHES+Hype+Machine%27s+Hype+Hotel+%5BMar+2013%5D+720p+3.4Mbps&amp;tr=udp%3A%2F%2Ftracker.openbittorrent.com%3A80&amp;tr=udp%3A%2F%2Fopen.demonii.com%3A1337&amp;tr=udp%3A%2F%2Ftracker.coppersurfer.tk%3A6969&amp;tr=udp%3A%2F%2Fexodus.desync.com%3A6969","seeders":2,"leechers":0,"uploader":"doragon69","files":2,"time":1405389074,"description":"ripped and remuxed / re-encoded from http://www.baeblemusic.com/concert-video/Hype-Hotel/CHVRCHES.html\n\nMediaPlayerClassic thumbnails: &lt;a href=&quot;\nhttp://image.bayimg.com/e3fd091ec938c6cfc8962aeea1c8b5659902006c.jpg&quot; rel=&quot;nofollow&quot; target=&quot;_NEW&quot;&gt;\nhttp://image.bayimg.com/e3fd091ec938c6cfc8962aeea1c8b5659902006c.jpg&lt;/a&gt;\n\n\nremux and re-encoded single file:\nVideo: MPEG4 Video (H264) 1280x720 23.976fps 3993kbps\nAudio: AAC 44100Hz stereo 160kbps\n\noriginal rip:\n152 part .ts files @\nVideo: MPEG4 Video (H264) 1280x720 23.976fps 3400kbps\nAudio: AAC 44100Hz stereo 64kbps\n\n\nSetlist:\n00:00:00.000 : Chapter 01 - Lies\n00:03:37.000 : Chapter 02 - We Sink\n00:07:09.000 : Chapter 03 - Gun\n00:11:03.000 : Chapter 04 - Science Visions\n00:14:54.000 : Chapter 05 - Recover\n00:18:31.000 : Chapter 06 - Under the Tide\n00:23:01.000 : Chapter 07 - The Mother We Share\n\nVideo\nFormat : AVC\nFormat/Info : Advanced Video Codec\nFormat profile : &lt;a class=&quot;__cf_email__&quot; href=&quot;/cdn-cgi/l/email-protection&quot; data-cfemail=&quot;682509010628245b4659&quot;&gt;[email&amp;#160;protected]&lt;/a&gt;&lt;script cf-hash='f9e31' type=&quot;text/javascript&quot;&gt;\n/* &lt;![CDATA[ */!function(){try{var t=&quot;currentScript&quot;in document?document.currentScript:function(){for(var t=document.getElementsByTagName(&quot;script&quot;),e=t.length;e--;)if(t[e].getAttribute(&quot;cf-hash&quot;))return t[e]}();if(t&amp;&amp;t.previousSibling){var e,r,n,i,c=t.previousSibling,a=c.getAttribute(&quot;data-cfemail&quot;);if(a){for(e=&quot;&quot;,r=parseInt(a.substr(0,2),16),n=2;a.length-n;n+=2)i=parseInt(a.substr(n,2),16)^r,e+=String.fromCharCode(i);e=document.createTextNode(e),c.parentNode.replaceChild(e,c)}}}catch(u){}}();/* ]]&gt; */&lt;/script&gt;\nFormat settings, CABAC : Yes\nFormat settings, ReFrames : 5 frames\nCodec ID : avc1\nCodec ID/Info : Advanced Video Coding\nDuration : 26mn 44s\nBit rate : 3 993 Kbps\nWidth : 1 280 pixels\nHeight : 720 pixels\nDisplay aspect ratio : 16:9\nFrame rate mode : Constant\nFrame rate : 23.976 fps\nStandard : NTSC\nColor space : YUV\nChroma subsampling : 4:2:0\nBit depth : 8 bits\nScan type : Progressive\nBits/(Pixel*Frame) : 0.181\nStream size : 764 MiB (96%)\nLanguage : English\n\nAudio\nID : 2\nFormat : AAC\nFormat/Info : Advanced Audio Codec\nFormat profile : LC\nCodec ID : 40\nDuration : 26mn 44s\nBit rate mode : Constant\nBit rate : 160 Kbps\nChannel(s) : 2 channels\nChannel positions : Front: L R\nSampling rate : 44.1 KHz\nCompression mode : Lossy\nStream size : 30.6 MiB (4%)\nLanguage : English\n\n\n\n","torrent":{"xt":"urn:btih:7c302ef77b5e306666d9abaae2f16c5eece2483b","amp;dn":"CHVRCHES+Hype+Machine%27s+Hype+Hotel+%5BMar+2013%5D+720p+3.4Mbps","amp;tr":["udp%3A%2F%2Ftracker.openbittorrent.com%3A80","udp%3A%2F%2Fopen.demonii.com%3A1337","udp%3A%2F%2Ftracker.coppersurfer.tk%3A6969","udp%3A%2F%2Fexodus.desync.com%3A6969"],"infoHash":"7c302ef77b5e306666d9abaae2f16c5eece2483b","infoHashBuffer":{"type":"Buffer","data":[124,48,46,247,123,94,48,102,102,217,171,170,226,241,108,94,236,226,72,59]},"announce":[],"urlList":[]}}